<svg xmlns="http://www.w3.org/2000/svg" width="64" height="64" viewBox="0 0 64 64" fill="none">
  <defs>
    <linearGradient id="mint-bg" x1="8" y1="6" x2="56" y2="58" gradientUnits="userSpaceOnUse">
      <stop stop-color="#E9FFF4" />
      <stop offset="1" stop-color="#A7F3D0" />
    </linearGradient>
    <linearGradient id="mint-leaf" x1="22" y1="16" x2="45" y2="48" gradientUnits="userSpaceOnUse">
      <stop stop-color="#3DDC97" />
      <stop offset="1" stop-color="#0F9F6E" />
    </linearGradient>
    <linearGradient id="mint-leaf-dark" x1="30" y1="18" x2="48" y2="42" gradientUnits="userSpaceOnUse">
      <stop stop-color="#34C38F" />
      <stop offset="1" stop-color="#087F5B" />
    </linearGradient>
  </defs>
  <rect x="6" y="6" width="52" height="52" rx="16" fill="url(#mint-bg)" />
  <path d="M29.52 17.47c-8.82 1.33-15.12 8.53-15.12 17.35 0 9.94 7.96 16.95 17.91 16.95 13.2 0 20.93-12.39 18.42-24.3-.64-3.04-2.03-5.85-3.86-8.19-.41-.52-1.18-.62-1.71-.24l-4.27 3.08c-.54.39-1.28.28-1.68-.24l-2.53-3.31c-1.64-2.15-4.34-3.5-7.16-3.1Z" fill="url(#mint-leaf)" />
  <path d="M46.85 19.28c-2.65 2.29-6.17 5.51-10.11 9.83-4.7 5.15-7.49 10.03-9.34 13.67" stroke="#F7FFF9" stroke-width="3" stroke-linecap="round" />
  <path d="M34.68 19.41c4.99 2.4 8.55 8.31 8.55 13.96 0 5.58-2.52 9.49-6.72 12.13 8.91-1.67 14.95-10.57 13.17-19.56-.54-2.73-1.83-5.24-3.7-7.28-.34-.37-.9-.42-1.29-.11l-2.58 2.08c-.37.3-.91.29-1.27-.03l-2.09-1.91c-1.19-1.08-2.58-1.85-4.07-2.28Z" fill="url(#mint-leaf-dark)" fill-opacity=".88" />
  <circle cx="48.5" cy="17" r="4.5" fill="#D8FFF0" />
  <path d="M47.08 17.07h2.83M48.5 15.65v2.84" stroke="#0F9F6E" stroke-width="1.9" stroke-linecap="round" />
</svg>
